<?xml version="1.0" encoding="UTF-8"?>
<svg width="200mm" height="200mm" version="1.1" viewBox="0 0 250 200" xmlns="http://www.w3.org/2000/svg" xmlnsCc="http://creativecommons.org/ns#" xmlnsDc="http://purl.org/dc/elements/1.1/" xmlnsOsb="http://www.openswatchbook.org/uri/2009/osb" xmlnsRdf="http://www.w3.org/1999/02/22-rdf-syntax-ns#" xmlnsXlink="http://www.w3.org/1999/xlink">
<metadata>
<rdfRDF>
<ccWork rdfAbout="">
<dcFormat>image/svg+xml</dcFormat>
<dcType rdfResource="http://purl.org/dc/dcmitype/StillImage"/>
<dcTitle/>
</ccWork>
</rdfRDF>
</metadata>
<g transform="matrix(2.0166 0 0 2.0568 -27.6 -212.89)">
<path d="m137.58 91.544-123.97 121.55l123.97 1e-5z" stroke="#000" stroke-width=".16239px"/>
<path d="m14.499 213.7 123.24-122.26-123.97 0.71663z" fill="#fff" stroke="#000" stroke-width=".16239px"/>
<flowRoot transform="scale(.26458)" fill="#000000" font-family="sans-serif" font-size="40px" letter-spacing="0px" word-spacing="0px" style="line-height:1.25" xmlSpace="preserve">
<flowRegion>
<rect x="-273.93" y="476.81" width="33.214" height="40"/>
</flowRegion>
<flowPara>dD H</flowPara>
</flowRoot>
<path d="m45.832 163.52 18.754 17.612l0.30734 0.1291h59.741c8.2554-0.82568 9.1147-17.364-0.37414-18.167l-58.905 0.17279-0.76895-0.21453-18.426-0.17252z" fill="#fff" stroke="#000" stroke-width="3.1149"/>
<path d="m86.886 122.52v80.618h18.733v-62.236z" fill="#fff" stroke="#000003" stroke-width="3.1182"/>
<path d="m84.754 120.2-60.531 0.54963v20.153l56.568 0.85499 6.3699 0.1355 0.05316-19.372z" stroke="#fff" stroke-width="3.1075"/>
<path d="m45.373 105.7 0.13132 57.817h18.733l-0.13132-58.203c-0.69391-9.5667-17.218-10.764-18.733 0.38627z" stroke="#fff" stroke-width="3.1075"/>
</g>
</svg>