<?xml version="1.0" encoding="UTF-8"?>
<svg width="200" height="200" version="1.1" viewBox="0 0 52.916666 52.916666" xmlns="http://www.w3.org/2000/svg" xmlnsCc="http://creativecommons.org/ns#" xmlnsDc="http://purl.org/dc/elements/1.1/" xmlnsRdf="http://www.w3.org/1999/02/22-rdf-syntax-ns#" xmlnsXlink="http://www.w3.org/1999/xlink">
<defs>
<filter id="a" x="-.023245" y="-.024805" width="1.0465" height="1.0496" color-interpolation-filters="sRGB">
<feGaussianBlur stdDeviation="0.45799253"/>
</filter>
</defs>
<metadata>
<rdfRDF>
<ccWork rdfAbout="">
<dcFormat>image/svg+xml</dcFormat>
<dcType rdfResource="http://purl.org/dc/dcmitype/StillImage"/>
<dcTitle/>
</ccWork>
</rdfRDF>
</metadata>
<g transform="translate(0 -244.08)">
<path d="m22.953 293.09c-2.3477-0.46243-4.5985-2.1425-5.6019-4.1813-2.2665-4.6054 0.07095-10.284 4.376-10.632 2.3807-0.19218 4.9988 1.0591 7.5695 3.6176 0.70059 0.6973 1.2996 1.2678 1.3311 1.2678s0.21075-0.48578 0.39831-1.0795c1.1587-3.6679 0.99425-6.7884-0.49071-9.3112-0.65655-1.1154-2.605-3.0128-5.0467-4.9145-3.1921-2.4861-4.3266-3.7799-4.9549-5.6502-0.3645-1.0851-0.42183-2.9228-0.13194-4.2294l0.19002-0.85647-0.39561-0.29226c-0.21759-0.16074-1.3208-1.2369-2.4515-2.3915-1.4281-1.4582-2.2443-2.1842-2.6727-2.3776-1.6658-0.75177-3.5411 0.13187-4.2509 2.003-0.33716 0.88882-0.52468 3.165-0.53987 6.5531-0.0207 4.6184-0.66971 6.6148-2.8504 8.7682-0.54653 0.53969-0.99369 1.0655-0.99369 1.1684s0.4919 0.69116 1.0931 1.3071c0.85105 0.87191 1.2145 1.3748 1.6412 2.2709 0.89298 1.8752 0.96459 2.3253 1.11 6.9761 0.1438 4.5987 0.25369 5.5018 0.79005 6.4926 0.63038 1.1645 1.4919 1.5918 3.2124 1.5932l0.92516 7.9e-4v2.9194l-1.4918-0.0787c-1.212-0.0639-1.6169-0.14211-2.159-0.41681-0.86731-0.4395-1.959-1.6045-2.4218-2.5845-0.68998-1.4609-0.78672-2.1218-0.92945-6.3498-0.17034-5.0461-0.35458-6.426-1.0576-7.9216-0.81464-1.733-1.9861-2.5636-3.6154-2.5636h-0.52337v-3.2498l0.89843-0.0839c1.771-0.16537 2.8568-1.1512 3.5612-3.2334 0.44301-1.3094 0.58303-2.7058 0.73648-7.3446 0.1392-4.208 0.25468-4.8689 1.1449-6.5517 1.0304-1.9478 3.0995-3.0888 4.8768-2.6895 0.98522 0.22137 2.0521 1.0216 3.996 2.9971 1.6138 1.64 2.5212 2.4566 3.1064 2.7953 0.09545 0.0553 0.28385-0.11459 0.46865-0.42245 1.1267-1.877 2.8885-3.3872 4.6681-4.0013 2.5237-0.87093 6.1833-0.24769 7.751 1.32 0.98181 0.9818 1.5055 2.565 1.372 4.1482-0.19987 2.3715-1.3872 3.9057-3.4559 4.4657-1.7303 0.46837-4.7765 0.0521-6.6748-0.91223-0.74102-0.37642-0.83991-0.34276-0.72907 0.2481 0.2616 1.3944 1.1984 2.4943 4.1844 4.9127 4.6415 3.7592 6.604 6.2467 7.5656 9.5891 0.27809 0.96666 0.31415 1.3805 0.30455 3.4951-0.01011 2.2238-0.04174 2.5154-0.43426 4.002-0.23285 0.88189-0.71006 2.32-1.0605 3.1959-0.72513 1.8124-0.75822 1.6488 0.53092 2.6245 2.5064 1.897 4.5501 1.9445 6.2094 0.14436 0.77102-0.83647 0.84196-1.2846 1.0026-6.3346 0.15203-4.778 0.2463-5.3834 1.1205-7.1957 0.44186-0.91601 0.79219-1.3956 1.6391-2.2439 0.59239-0.59336 1.0771-1.1727 1.0771-1.2875 0-0.11476-0.4786-0.70864-1.0636-1.3197-1.2318-1.2868-1.964-2.5692-2.3715-4.1538-0.22746-0.88447-0.29776-1.8149-0.40691-5.3866-0.13541-4.4308-0.22524-5.1466-0.78264-6.2363-0.54342-1.0624-1.2835-1.4509-2.9435-1.5456l-1.2038-0.0686v-2.8791l1.4734 0.0748c0.84851 0.0431 1.6769 0.16275 1.9531 0.28217 1.3756 0.59462 2.3866 1.8342 3.0384 3.7253 0.43189 1.253 0.47523 1.7154 0.66168 7.0585 0.16201 4.6426 0.51872 6.1975 1.7291 7.5373 0.67867 0.75122 1.3793 1.0909 2.4575 1.1916l0.88521 0.0827v3.2498h-0.52337c-1.5358 0-2.7554 0.82224-3.5179 2.3717-0.74468 1.5134-0.87446 2.4107-1.0942 7.5652-0.12589 2.9528-0.26827 4.9114-0.38863 5.3461-0.90763 3.2779-3.0011 4.8791-6.1261 4.6856-0.65003-0.0403-1.5341-0.20065-2-0.36285-0.70191-0.24437-2.8886-1.3775-3.9893-2.0673-0.28142-0.17635-0.35877-0.13361-1.1725 0.6478-1.6039 1.5401-3.1598 2.3597-5.1737 2.7251-1.2696 0.23034-2.1177 0.22563-3.358-0.0187zm3.188-3.8119c0.71699-0.36333 1.7486-1.2912 2.4156-2.1726l0.38684-0.5112-0.89354-1.065c-2.9227-3.4836-4.8657-4.2581-6.4776-2.5821-0.98004 1.019-1.1476 2.6663-0.4306 4.2325 1.0306 2.2512 3.0364 3.0931 4.9993 2.0985zm4.4327-30.948c1.0588-0.36517 1.6404-1.125 1.8858-2.4639 0.25335-1.3824-0.33307-2.4506-1.693-3.0839-0.88396-0.41164-2.4642-0.44325-3.2905-0.0658-1.1146 0.50913-2.3533 2.3114-2.4984 3.6352l-0.06169 0.56284 0.85796 0.46758c1.7614 0.95994 3.6713 1.3371 4.7998 0.94794z" filter="url(#a)"/>
<path transform="matrix(.26458 0 0 .26458 0 244.08)" d="m51.988 18.107c-5.2644 0.0097-6.0408 0.71197-8.7949 2.0605-5.589 2.7366-9.7176 9.07-11.605 17.805-0.68189 3.1548-0.80498 5.2599-1.0664 18.037-0.3179 15.536-0.68878 19.397-2.377 24.787-2.6276 8.3902-6.9004 12.312-13.779 12.646l-3.125 0.15234v12.67l3.0566 0.19141c5.6842 0.35463 9.6277 3.22 12.305 8.9453 2.9737 6.36 3.5623 10.641 3.9375 28.643 0.31078 14.909 0.54551 17.336 2.166 22.299 2.3406 7.1677 6.9506 12.413 12.637 14.379v2e-3c1.3757 0.4758 3.0109 0.6233 7.0586 0.63086l5.2676 0.0117v-11.07h-3.4961c-7.2642 0-10.557-1.8448-12.936-7.2422-1.6405-3.7222-1.8434-5.7384-2.1367-21.33-0.29295-15.569-0.57131-18.55-2.2051-23.572-0.93346-2.8694-2.8222-6.6896-4.5898-9.2852-1.4214-2.0873-5.4351-6.1989-6.9453-7.1152-0.64833-0.39341-0.90625-0.85705-0.90625-1.6289 0-0.90108 0.42355-1.4306 2.5684-3.2207 4.3257-3.6103 7.8083-8.8029 9.7012-14.463 1.8108-5.4147 2.0707-8.049 2.3691-24.107 0.25267-13.598 0.35038-15.281 1.043-18.002 0.95278-3.7433 2.2397-6.1431 4.2383-7.9023 4.4389-3.8075 8.8719-4.6822 14.701-0.8457 7.5118 6.4567 8.8192 10.551 18.447 17.761-13.299 47.542 60.823 36.486 38.021 98.417-17.79-21.651-42.255-27.214-51.917-3.692-11.225 37.287 33.661 57.334 58.501 27.893 10.897 6.4113 19.883 13.218 33.868 8.7635v-2e-3c5.6861-1.9662 10.296-7.2112 12.637-14.379 1.6205-4.9626 1.8572-7.3895 2.168-22.299 0.37523-18.001 0.96182-22.283 3.9356-28.643 2.677-5.7253 6.6205-8.5907 12.305-8.9453l3.0586-0.19141v-12.67l-3.125-0.15234c-6.8789-0.33449-11.154-4.2562-13.781-12.646-1.6882-5.3906-2.0571-9.251-2.375-24.787-0.26143-12.777-0.38647-14.882-1.0684-18.037-1.8879-8.7347-6.0164-15.068-11.605-17.805-2.7541-1.3486-4.4778-1.6407-9.7422-1.6504l-4.7324-0.0078v10.961l4.1992 0.22656c4.9541 0.26646 6.9934 0.8782 9.0976 2.7305 1.9986 1.7593 3.2855 4.159 4.2383 7.9023 0.6926 2.7211 0.7903 4.4043 1.043 18.002 0.2984 16.058 0.55638 18.693 2.3672 24.107 1.8929 5.66 5.3774 10.853 9.7031 14.463 2.1448 1.7901 2.5664 2.3196 2.5664 3.2207 0 0.77185-0.25791 1.2355-0.90625 1.6289-1.5102 0.91635-5.5239 5.0279-6.9453 7.1152-1.7676 2.5956-3.6564 6.4157-4.5898 9.2852-1.6338 5.0222-1.9121 8.0037-2.2051 23.572-0.29337 15.592-0.49617 17.608-2.1367 21.33-11.764 13.874-23.645 1.627-29.109-2.8801 32.721-71.125-38.587-80.862-37.469-103.15 18.618 9.6032 42.971 8.3854 41.129-17.273-1.9569-11.301-8.3057-14.378-15.4-16.492-17.65-4.6244-31.117 3.7592-38.162 17.4-7.7827-4.8571-10.248-9.256-14.941-13.76-3.6426-3.4955-6.1455-5.6895-9.0273-7.1836-1.4749-0.99668-2.8263-1.2945-5.1309-1.6113zm58.592 13.502c5.6148 0.20049 11.821 4.0394 12.14 9.9911-0.91736 17.214-16.75 14.28-28.571 6.3987 0.71573-5.7731 3.0392-10.44 8.1278-14.421 2.7757-2.0218 5.7506-2.0599 8.3027-1.9688zm-24.22 112.38c5.013-0.60149 10.227 0.813 22.525 16.633-21.648 31.594-42.531-10.863-22.525-16.633z" fill="#0055d4" stroke="#ffeaff" stroke-miterlimit="6.6667" stroke-width="2"/>
<path d="m24.011 293.09c-2.3477-0.46243-4.5985-2.1425-5.6019-4.1813-2.2665-4.6054 0.07095-10.284 4.376-10.632 2.3807-0.19218 4.9988 1.0591 7.5695 3.6176 0.7006 0.6973 1.2996 1.2678 1.3311 1.2678 0.03151 0 0.21075-0.48578 0.39831-1.0795 1.1587-3.6679 0.99425-6.7884-0.49071-9.3112-0.65655-1.1154-2.605-3.0128-5.0467-4.9145-3.1921-2.4861-4.3266-3.7799-4.9549-5.6502-0.3645-1.0851-0.42183-2.9228-0.13194-4.2294l0.19002-0.85647-0.39561-0.29226c-0.21759-0.16074-1.3208-1.2369-2.4515-2.3915-1.4281-1.4582-2.2443-2.1842-2.6727-2.3776-1.6658-0.75177-3.5411 0.13187-4.2509 2.003-0.33716 0.88882-0.52468 3.165-0.53987 6.5531-0.0207 4.6184-0.66971 6.6148-2.8504 8.7682-0.54653 0.53969-0.99369 1.0655-0.99369 1.1684s0.4919 0.69116 1.0931 1.3071c0.85105 0.87191 1.2145 1.3748 1.6412 2.2709 0.89298 1.8752 0.96459 2.3253 1.11 6.9761 0.1438 4.5987 0.25369 5.5018 0.79005 6.4926 0.63038 1.1645 1.4919 1.5918 3.2124 1.5932l0.92516 7.9e-4v2.9194l-1.4918-0.0787c-1.212-0.0639-1.6169-0.14211-2.159-0.41681-0.86731-0.4395-1.959-1.6045-2.4218-2.5845-0.68998-1.4609-0.78672-2.1218-0.92945-6.3498-0.17034-5.0461-0.35458-6.426-1.0576-7.9216-0.81464-1.733-1.9861-2.5636-3.6154-2.5636h-0.52337v-3.2498l0.89843-0.0839c1.771-0.16537 2.8568-1.1512 3.5612-3.2334 0.44301-1.3094 0.58303-2.7058 0.73648-7.3446 0.1392-4.208 0.25468-4.8689 1.1449-6.5517 1.0304-1.9478 3.0995-3.0888 4.8768-2.6895 0.98522 0.22137 2.0521 1.0216 3.996 2.9971 1.6138 1.64 2.5212 2.4566 3.1064 2.7953 0.09545 0.0553 0.28385-0.11459 0.46865-0.42245 1.1267-1.877 2.8885-3.3872 4.6681-4.0013 2.5237-0.87093 6.1833-0.24769 7.751 1.32 0.98181 0.9818 1.5055 2.565 1.372 4.1482-0.19987 2.3715-1.3872 3.9057-3.4559 4.4657-1.7303 0.46837-4.7765 0.0521-6.6748-0.91223-0.74102-0.37642-0.83991-0.34276-0.72907 0.2481 0.2616 1.3944 1.1984 2.4943 4.1844 4.9127 4.6415 3.7592 6.604 6.2467 7.5656 9.5891 0.27809 0.96666 0.31415 1.3805 0.30455 3.4951-0.01011 2.2238-0.04174 2.5154-0.43426 4.002-0.23285 0.88189-0.71006 2.32-1.0605 3.1959-0.72513 1.8124-0.75822 1.6488 0.53092 2.6245 2.5064 1.897 4.5501 1.9445 6.2094 0.14436 0.77103-0.83647 0.84197-1.2846 1.0026-6.3346 0.15203-4.778 0.2463-5.3834 1.1205-7.1957 0.44186-0.91601 0.79219-1.3956 1.6391-2.2439 0.59239-0.59336 1.0771-1.1727 1.0771-1.2875 0-0.11476-0.4786-0.70864-1.0636-1.3197-1.2318-1.2868-1.964-2.5692-2.3715-4.1538-0.22746-0.88447-0.29776-1.8149-0.40691-5.3866-0.13541-4.4308-0.22524-5.1466-0.78264-6.2363-0.54342-1.0624-1.2835-1.4509-2.9435-1.5456l-1.2038-0.0686v-2.8791l1.4734 0.0748c0.84851 0.0431 1.6769 0.16275 1.9531 0.28217 1.3756 0.59462 2.3866 1.8342 3.0384 3.7253 0.43189 1.253 0.47523 1.7154 0.66168 7.0585 0.16201 4.6426 0.51872 6.1975 1.7291 7.5373 0.67867 0.75122 1.3793 1.0909 2.4575 1.1916l0.88521 0.0827v3.2498h-0.52337c-1.5358 0-2.7554 0.82224-3.5179 2.3717-0.74468 1.5134-0.87446 2.4107-1.0942 7.5652-0.12589 2.9528-0.26827 4.9114-0.38863 5.3461-0.90764 3.2779-3.0011 4.8791-6.1261 4.6856-0.65003-0.0403-1.5341-0.20065-2-0.36285-0.70191-0.24437-2.8886-1.3775-3.9893-2.0673-0.28142-0.17635-0.35877-0.13361-1.1725 0.6478-1.6039 1.5401-3.1598 2.3597-5.1737 2.7251-1.2696 0.23034-2.1177 0.22563-3.358-0.0187zm3.188-3.8119c0.71699-0.36333 1.7486-1.2912 2.4156-2.1726l0.38684-0.5112-0.89354-1.065c-2.9227-3.4836-4.8657-4.2581-6.4776-2.5821-0.98004 1.019-1.1476 2.6663-0.4306 4.2325 1.0306 2.2512 3.0364 3.0931 4.9993 2.0985zm4.4327-30.948c1.0588-0.36517 1.6404-1.125 1.8858-2.4639 0.25335-1.3824-0.33307-2.4506-1.693-3.0839-0.88396-0.41164-2.4642-0.44325-3.2905-0.0658-1.1146 0.50913-2.3533 2.3114-2.4984 3.6352l-0.06169 0.56284 0.85796 0.46758c1.7614 0.95994 3.6713 1.3371 4.7998 0.94794z" fill="#2affd5" fill-opacity=".61809" opacity=".606"/>
</g>
</svg>